<?xml version="1.0" standalone="no"?><!DOCTYPE svg PUBLIC "-//W3C//DTD SVG 1.1//EN" "http://www.w3.org/Graphics/SVG/1.1/DTD/svg11.dtd"><svg class="icon" width="200px" height="195.61px" viewBox="0 0 1047 1024" version="1.1" xmlns="http://www.w3.org/2000/svg"><path d="M755.595636 95.418182h-416.581818c-132.654545 0-158.254545 30.254545-158.254545 155.927273h4.654545-2.327273c-34.909091 0-44.218182 27.927273-44.218181 62.836363 0 34.909091 9.309091 62.836364 44.218181 62.836364V465.454545v-4.654545c-34.909091 0-44.218182 27.927273-44.218181 62.836364 0 34.909091 9.309091 62.836364 44.218181 62.836363v-6.981818V674.909091v-9.309091c-34.909091 0-44.218182 27.927273-44.218181 62.836364 0 34.909091 2.327273 69.818182 37.236363 69.818181h6.981818c0 109.381818 25.6 130.327273 158.254546 130.327273h416.581818c116.363636 0 153.6-27.927273 153.6-137.309091V249.018182c-2.327273-130.327273-37.236364-153.6-155.927273-153.6z m-65.163636 465.454545c23.272727 0 34.909091 11.636364 34.909091 34.909091s-11.636364 37.236364-39.563636 37.236364c-16.290909 0-93.090909-2.327273-93.09091-2.327273v79.127273c0 23.272727-20.945455 27.927273-44.218181 27.927273-23.272727 0-44.218182-4.654545-44.218182-27.927273v-79.127273h-95.418182c-23.272727 0-34.909091-11.636364-34.909091-34.909091v-6.981818c2.327273-20.945455 13.963636-27.927273 34.909091-27.927273h95.418182v-53.527272h-95.418182c-16.290909 0-32.581818-4.654545-32.581818-41.89091 0-23.272727 13.963636-37.236364 37.236363-37.236363h74.472728l-51.2-46.545455-23.272728-23.272727c-16.290909-16.290909-16.290909-39.563636-2.327272-55.854545 0 0 0-2.327273 2.327272-2.327273 16.290909-16.290909 41.890909-16.290909 58.181819 0l2.327272 2.327273 74.472728 74.472727 79.127272-79.127273c16.290909-16.290909 41.890909-16.290909 58.181819 0s16.290909 41.890909 0 58.181818l-69.818182 69.818182h74.472727c23.272727 0 37.236364 13.963636 37.236364 37.236364s-11.636364 41.890909-34.909091 41.890909h-95.418182V558.545455l93.090909 2.327272z" fill="#DBDBDB" /></svg>