<?xml version="1.0" encoding="UTF-8"?>
<svg width="23px" height="23px" viewBox="0 0 23 23" version="1.1" xmlns="http://www.w3.org/2000/svg" xmlns:xlink="http://www.w3.org/1999/xlink">
    <title>add</title>
    <g id="页面-1" stroke="none" stroke-width="1" fill="none" fill-rule="evenodd">
        <g id="记账" transform="translate(-681.000000, -545.000000)" fill="#D6D6D6" fill-rule="nonzero">
            <g id="编组-12" transform="translate(664.000000, 530.000000)">
                <g id="add" transform="translate(2.000000, 0.000000)">
                    <g transform="translate(15.000000, 15.000000)" id="路径">
                        <path d="M11.90983,22.9979299 C10.8366593,22.9535413 10,22.1046091 10,21.0947683 L10,1.90501862 C10,0.8979521 10.8366593,0.049019989 11.90983,0.00185709399 C13.0569106,-0.0453058011 14,0.811949174 14,1.87727574 L14,21.1225112 C14,22.1878378 13.0569106,23.047867 11.90983,22.9979299 L11.90983,22.9979299 Z"></path>
                        <path d="M21.1242611,14 L1.87573893,14 C0.837978043,14 0,13.1035503 0,12 C0,10.8934911 0.840752805,10 1.87573893,10 L21.1242611,10 C22.162022,10 23,10.8964497 23,12 C23,13.1065089 22.1592472,14 21.1242611,14 Z"></path>
                    </g>
                </g>
            </g>
        </g>
    </g>
</svg>