<?xml version="1.0" encoding="UTF-8"?>
<svg width="44px" height="44px" viewBox="0 0 44 44" version="1.1" xmlns="http://www.w3.org/2000/svg" xmlns:xlink="http://www.w3.org/1999/xlink">
    <title>Analysis-g</title>
    <g id="页面-1" stroke="none" stroke-width="1" fill="none" fill-rule="evenodd">
        <g id="账本" transform="translate(-661.000000, -1247.000000)" fill-rule="nonzero">
            <g id="编组-13" transform="translate(0.000000, 1236.000000)">
                <g id="编组-2" transform="translate(18.000000, 11.000000)">
                    <g id="统计分析" transform="translate(617.000000, 0.000000)">
                        <g id="Analysis-g" transform="translate(26.000000, 0.000000)">
                            <rect id="矩形" fill="#000000" opacity="0" x="0" y="0" width="44" height="44"></rect>
                            <path d="M36.625,6.25016644 L23.6875,6.25016644 C23.378125,6.25016644 23.125,5.99707238 23.125,5.68773517 L23.125,5.14991025 C23.125,4.53826621 22.6433594,4.01801727 22.0316406,4.00044129 C21.3953125,3.98286534 20.875,4.49256867 20.875,5.12530386 L20.875,5.68773517 C20.875,5.99707238 20.621875,6.25016644 20.3125,6.25016644 L7.37499999,6.25016644 C5.51171875,6.25016644 4,7.76170052 4,9.62475413 L4,29.3098491 C4,31.1729027 5.51171875,32.6844368 7.37499999,32.6844368 L17.8410156,32.6844368 C18.2101563,32.6844368 18.4808594,33.0359564 18.3859375,33.3909911 L16.9972656,38.5794197 C16.8355469,39.1805181 17.1941406,39.7956774 17.7917969,39.9573763 C17.8902344,39.9854979 17.9886719,39.9960435 18.0835938,39.9960435 C18.5792969,39.9960435 19.0363281,39.6656151 19.1699219,39.1629422 L20.875,32.7934079 L20.875,38.8500897 C20.875,39.4617338 21.3566406,39.9819827 21.9683594,39.9995587 C22.6046875,40.0171347 23.125,39.5074313 23.125,38.8746961 L23.125,32.6844368 L23.1496094,32.6844368 L24.8863281,39.1629422 C25.0199219,39.6656151 25.4769531,39.9960435 25.9726562,39.9960435 C26.0675781,39.9960435 26.1660156,39.9819827 26.2644531,39.9573763 C26.865625,39.7956774 27.2207031,39.1805181 27.0589844,38.5794197 L25.6703125,33.3909911 C25.5753906,33.0324412 25.8425781,32.6844368 26.2152344,32.6844368 L36.625,32.6844368 C38.4882812,32.6844368 40,31.1729027 40,29.3098491 L40,9.62475413 C40,7.76170052 38.4882812,6.25016644 36.625,6.25016644 Z M8.5,19.7485173 C8.5,15.4002204 12.0261719,11.8744793 16.375,11.8744793 C17.1554688,11.8744793 17.9113281,11.9869655 18.625,12.2013925 C21.1667969,12.9571595 23.1671875,14.960821 23.9230469,17.4987921 C24.1339844,18.2123768 24.25,18.9681439 24.25,19.7485173 C24.25,24.0968141 20.7238281,27.6225552 16.375,27.6225552 C12.0261719,27.6225552 8.5,24.0968141 8.5,19.7485173 Z M33.25,23.123105 C33.8722657,23.123105 34.375,23.6257779 34.375,24.2479675 C34.375,24.5573048 34.2484375,24.8385204 34.0445313,25.0424017 C33.840625,25.2462831 33.559375,25.3728301 33.25,25.3728301 L28.1875,25.3728301 C27.5652344,25.3728301 27.0625,24.8701571 27.0625,24.2479675 C27.0625,23.9386303 27.1890625,23.6574147 27.3929688,23.4535334 C27.596875,23.249652 27.878125,23.123105 28.1875,23.123105 L33.25,23.123105 L33.25,23.123105 Z M28.1875,19.7485173 C28.1875,19.4391801 28.3140625,19.1579644 28.5179688,18.9540831 C28.721875,18.7502017 29.003125,18.6236547 29.3125,18.6236547 L33.25,18.6236547 C33.8722657,18.6236547 34.375,19.1263277 34.375,19.7485173 C34.375,20.0578545 34.2484375,20.3390701 34.0445313,20.5429515 C33.840625,20.7468328 33.559375,20.8733798 33.25,20.8733798 L29.3125,20.8733798 C28.6902344,20.8733798 28.1875,20.3707069 28.1875,19.7485173 Z M34.0445313,16.0435012 C33.840625,16.2473825 33.559375,16.3739296 33.25,16.3739296 L28.1875,16.3739296 C27.5652344,16.3739296 27.0625,15.8712566 27.0625,15.249067 C27.0625,14.9397298 27.1890625,14.6585141 27.3929688,14.4546328 C27.596875,14.2507515 27.878125,14.1242044 28.1875,14.1242044 L33.25,14.1242044 C33.8722657,14.1242044 34.375,14.6268774 34.375,15.249067 C34.375,15.5584042 34.2484375,15.8396198 34.0445313,16.0435012 L34.0445313,16.0435012 Z" id="形状" fill="#DBDBDB"></path>
                            <path d="M21.8507638,18 L19.2981191,18 C19.1341536,18 19,17.8658464 19,17.7018809 L19,15.1492362 C19,15.0411681 19.1155211,14.9666383 19.2124099,15.0150827 C19.8049216,15.3020223 20.3527154,15.6895771 20.8297059,16.1702941 C21.3066964,16.6510111 21.6979777,17.1950785 21.9849173,17.7875901 C22.0333617,17.8844788 21.9588319,18 21.8507638,18 L21.8507638,18 Z" id="路径" fill="#DBDBDB"></path>
                            <path d="M21.9963017,20.087603 C21.8618671,21.3320769 21.3103405,22.4834738 20.4141097,23.3832181 C19.3731031,24.4243016 17.9908395,24.9965527 16.5189527,25 C15.0711953,25 13.6889317,24.4380907 12.6548192,23.4245857 C11.6000245,22.3903968 11.0140275,21.0114784 11.0002393,19.5394829 C10.9864511,18.0605929 11.5690011,16.629965 12.6134547,15.5854343 C13.5096855,14.6891373 14.6575504,14.1410172 15.8984853,14.0031254 C16.2259542,13.9686524 16.5120587,14.2237523 16.5120587,14.5512455 L16.5120587,17.8261768 C16.5120587,18.7397102 17.2531726,19.4808789 18.1666386,19.4808789 L21.4447751,19.4808789 C21.775691,19.4808789 22.0342192,19.7635572 21.9963017,20.087603 Z" id="路径" fill="#DBDBDB"></path>
                        </g>
                    </g>
                </g>
            </g>
        </g>
    </g>
</svg>