<?xml version="1.0" standalone="no"?><!DOCTYPE svg PUBLIC "-//W3C//DTD SVG 1.1//EN" "http://www.w3.org/Graphics/SVG/1.1/DTD/svg11.dtd"><svg class="icon" width="200px" height="200.00px" viewBox="0 0 1024 1024" version="1.1" xmlns="http://www.w3.org/2000/svg"><path d="M851.781818 146.618182H551.563636c-6.981818 0-13.963636-6.981818-13.963636-13.963637v-13.963636c0-13.963636-11.636364-25.6-25.6-25.6-13.963636 0-27.927273 11.636364-27.927273 25.6v13.963636c0 6.981818-6.981818 13.963636-13.963636 13.963637H172.218182C128 146.618182 93.090909 181.527273 93.090909 223.418182v458.472727c0 44.218182 34.909091 79.127273 79.127273 79.127273h244.363636c9.309091 0 13.963636 9.309091 11.636364 16.290909L395.636364 898.327273c-4.654545 13.963636 4.654545 27.927273 18.618181 32.581818h6.981819c11.636364 0 23.272727-6.981818 25.6-18.618182l39.563636-148.945454v141.963636c0 13.963636 11.636364 25.6 25.6 25.6 13.963636 0 27.927273-11.636364 27.927273-25.6v-144.290909l39.563636 151.272727c2.327273 11.636364 13.963636 18.618182 25.6 18.618182h6.981818c13.963636-4.654545 23.272727-18.618182 18.618182-32.581818l-32.581818-121.018182c-2.327273-9.309091 4.654545-16.290909 11.636364-16.290909h242.036363c44.218182 0 79.127273-34.909091 79.127273-79.127273V223.418182c0-41.890909-34.909091-76.8-79.127273-76.8zM197.818182 458.472727c0-100.072727 81.454545-183.854545 183.854545-183.854545 18.618182 0 34.909091 2.327273 51.2 6.981818 58.181818 18.618182 104.727273 65.163636 123.345455 123.345455 4.654545 16.290909 6.981818 34.909091 6.981818 51.2 0 100.072727-81.454545 183.854545-183.854545 183.854545s-181.527273-79.127273-181.527273-181.527273z m574.836363 79.127273c13.963636 0 25.6 11.636364 25.6 25.6 0 6.981818-2.327273 13.963636-6.981818 18.618182-4.654545 4.654545-11.636364 6.981818-18.618182 6.981818h-118.690909c-13.963636 0-25.6-11.636364-25.6-25.6 0-6.981818 2.327273-13.963636 6.981819-18.618182 4.654545-4.654545 11.636364-6.981818 18.618181-6.981818h118.690909z m-116.363636-79.127273c0-6.981818 2.327273-13.963636 6.981818-18.618182 4.654545-4.654545 11.636364-6.981818 18.618182-6.981818h90.763636c13.963636 0 25.6 11.636364 25.6 25.6 0 6.981818-2.327273 13.963636-6.981818 18.618182-4.654545 4.654545-11.636364 6.981818-18.618182 6.981818h-90.763636c-13.963636 2.327273-25.6-9.309091-25.6-25.6zM791.272727 372.363636c-4.654545 4.654545-11.636364 6.981818-18.618182 6.981819h-118.690909c-13.963636 0-25.6-11.636364-25.6-25.6 0-6.981818 2.327273-13.963636 6.981819-18.618182 4.654545-4.654545 11.636364-6.981818 18.618181-6.981818h118.690909c13.963636 0 25.6 11.636364 25.6 25.6 2.327273 9.309091-2.327273 13.963636-6.981818 18.618181z" fill="#DBDBDB" /><path d="M509.672727 418.909091h-60.509091c-4.654545 0-6.981818-2.327273-6.981818-6.981818v-60.509091c0-2.327273 2.327273-4.654545 4.654546-2.327273 13.963636 6.981818 25.6 16.290909 37.236363 27.927273s20.945455 23.272727 27.927273 37.236363c0 2.327273 0 4.654545-2.327273 4.654546z" fill="#DBDBDB" /><path d="M512 467.781818c-2.327273 27.927273-16.290909 55.854545-37.236364 76.8-23.272727 23.272727-55.854545 37.236364-90.763636 37.236364-32.581818 0-65.163636-13.963636-90.763636-37.236364S256 488.727273 253.672727 453.818182c0-34.909091 13.963636-67.490909 37.236364-93.090909 20.945455-20.945455 46.545455-32.581818 76.8-37.236364 6.981818 0 13.963636 4.654545 13.963636 11.636364v76.8c0 20.945455 16.290909 39.563636 39.563637 39.563636h76.8c9.309091 2.327273 13.963636 9.309091 13.963636 16.290909z" fill="#DBDBDB" /></svg>