<?xml version="1.0" encoding="UTF-8"?>
<svg width="23px" height="23px" viewBox="0 0 23 23" version="1.1" xmlns="http://www.w3.org/2000/svg" xmlns:xlink="http://www.w3.org/1999/xlink">
    <title>转账</title>
    <g id="页面-1" stroke="none" stroke-width="1" fill="none" fill-rule="evenodd">
        <g id="记账备份" transform="translate(-363.000000, -607.000000)" fill-rule="nonzero">
            <g id="编组-13备份" transform="translate(31.000000, 591.000000)">
                <g id="编组-6" transform="translate(316.000000, 0.000000)">
                    <g id="traffic" transform="translate(1.000000, 0.000000)">
                        <g id="转账" transform="translate(15.000000, 16.000000)">
                            <rect id="矩形" fill="#000000" opacity="0" x="0" y="0" width="23" height="23"></rect>
                            <path d="M17.5901311,9.78410002 L17.5901311,11.381792 C17.5901311,11.5164289 17.6968215,11.6241385 17.8301845,11.6241385 C19.5527895,11.6241385 20.9486553,10.2149383 20.9486553,8.47587754 L20.9486553,5.33434845 C20.9486553,5.15034461 20.7997333,5 20.6174705,5 L5.27183819,5 C3.46476995,5 2,6.47876262 2,8.30309344 C2,8.52748838 2.18004001,8.70924828 2.40231162,8.70924828 L16.5276728,8.70924828 C17.1144699,8.71149223 17.5901311,9.19169739 17.5901311,9.78410002 Z M21.5976884,15.2885078 L7.47232718,15.2885078 C6.88553012,15.2885078 6.40986886,14.8083026 6.40986886,14.2159 L6.40986886,12.618208 C6.40986886,12.4835711 6.30317848,12.3758615 6.16981551,12.3758615 C4.44721049,12.3758615 3.05134474,13.7850617 3.05134474,15.5241225 L3.05134474,18.6656515 C3.05134474,18.8496554 3.20026673,19 3.38252945,19 L18.7281618,19 C20.5352301,19 22,17.5212374 22,15.6969066 C22,15.4702677 21.81996,15.2885078 21.5976884,15.2885078 Z" id="形状" fill="#D6D6D6"></path>
                        </g>
                    </g>
                </g>
            </g>
        </g>
    </g>
</svg>