<?xml version="1.0" encoding="UTF-8"?>
<svg width="28px" height="28px" viewBox="0 0 28 28" version="1.1" xmlns="http://www.w3.org/2000/svg" xmlns:xlink="http://www.w3.org/1999/xlink">
    <title>daily</title>
    <g id="页面-1" stroke="none" stroke-width="1" fill="none" fill-rule="evenodd">
        <g id="记账" transform="translate(-679.000000, -393.000000)" fill="#D6D6D6" fill-rule="nonzero">
            <g id="编组-3" transform="translate(664.000000, 381.000000)">
                <g id="daily" transform="translate(2.000000, 0.000000)">
                    <g transform="translate(13.000000, 12.000000)" id="形状">
                        <path d="M10.7176825,6.03239082 C13.2843264,6.03239082 15.3633079,5.33473036 15.3633079,4.47218247 C15.3633079,3.61119012 13.2843264,2.91352966 10.7184603,2.91352966 C8.1525942,2.91352966 6.07283491,3.61119012 6.07283491,4.47218247 C6.07283491,5.33473036 8.1525942,6.03239082 10.7184603,6.03239082 L10.7176825,6.03239082 Z M10.7176825,0 C16.6380743,0 21.4369206,2.00275998 21.4369206,4.47218247 L21.4369206,23.5275686 C21.4369206,25.9977689 16.6380743,28.0005289 10.7184603,28.0005289 C4.79806846,27.9997511 1.77635684e-15,25.9969911 1.77635684e-15,23.5267909 L1.77635684e-15,4.47218247 C1.77635684e-15,2.00275998 4.79884623,0 10.7176825,0 Z M27.1348699,6.67327402 C27.7570866,6.67327402 28.1755273,7.31260167 27.9274184,7.88348548 L25.2651088,14.0022089 C24.9009821,14.8382364 24.9009821,15.7880469 25.2651088,16.6240745 L27.9274184,22.7427978 C28.0442591,23.0100834 28.0183571,23.3182776 27.8585429,23.5623119 C27.6987287,23.8063462 27.4265774,23.9532755 27.1348699,23.9530097 L22.5592439,23.9530097 L22.5592439,6.67327402 L27.1348699,6.67327402 Z"></path>
                    </g>
                </g>
            </g>
        </g>
    </g>
</svg>