<?xml version="1.0" encoding="UTF-8"?>
<svg width="28px" height="28px" viewBox="0 0 28 28" version="1.1" xmlns="http://www.w3.org/2000/svg" xmlns:xlink="http://www.w3.org/1999/xlink">
    <title>eat</title>
    <g id="页面-1" stroke="none" stroke-width="1" fill="none" fill-rule="evenodd">
        <g id="记账" transform="translate(-45.000000, -394.000000)" fill="#D6D6D6" fill-rule="nonzero">
            <g id="编组-4" transform="translate(30.000000, 381.000000)">
                <g id="eat" transform="translate(2.000000, 0.000000)">
                    <g id="汉堡苏打麦片" transform="translate(13.000000, 13.000000)">
                        <path d="M16.3423615,13.7413015 C17.6075574,15.3454131 18.3690228,17.3640147 18.3690228,19.5606302 L18.3690228,20.0353925 L17.6056301,20.0353925 C17.7338259,20.2789353 17.8135467,20.5519134 17.8135467,20.8452744 C17.8135467,21.1528859 17.7271679,21.4382456 17.5871162,21.689848 L18.36949,21.689848 L18.36949,22.1646104 C18.36949,23.7450101 17.9693089,24.8867409 17.3036838,25.7146695 L17.3383171,26.1447532 L25.85513,26.1447532 L27.2242842,7.52979311 L28,7.52979311 L28,5.95272234 L22.2566544,5.95272234 C22.2851553,3.01882055 20.1412198,0.606228738 17.1484472,0.590568384 C16.4975982,0.587247609 16.4975982,1.59651915 17.1484472,1.59984814 C19.6037904,1.61263851 21.2663055,3.56904026 21.2473244,5.95272234 L15.0662442,5.95272234 L15.0662442,7.52979311 L15.8433617,7.52979311 L16.3423615,13.7413015 L16.3423615,13.7413015 Z M16.8474938,20.0353341 L0.852633277,20.0353341 C0.669830191,20.2565667 0.555476059,20.5362029 0.555476059,20.845216 C0.555476059,21.1704069 0.680810047,21.4642935 0.881134187,21.6897896 L17.0127174,21.6897896 C17.2130415,21.4642935 17.3383755,21.1704069 17.3383755,20.845216 C17.3383755,20.5361445 17.223963,20.2560411 17.0412183,20.0353341 L16.8474938,20.0353341 L16.8474938,20.0353341 Z M8.94689657,27.4094234 C12.7034706,27.4094234 15.9174758,27.2318766 17.2434114,24.9759231 C17.6616391,24.2647432 17.8937932,23.3489758 17.8937932,22.164552 L0,22.164552 C0,27.1060754 4.00584034,27.4094234 8.94689657,27.4094234 Z M1.03917417,19.5606302 L17.894202,19.5606302 C17.894202,17.7404839 17.3473112,16.049935 16.4139643,14.6371534 C14.8131233,12.2141074 12.0682153,10.6137336 8.94683817,10.6137336 C4.00537312,10.6137336 0,14.6195739 0,19.5606302 L1.03917417,19.5606302 Z" id="eat"></path>
                    </g>
                </g>
            </g>
        </g>
    </g>
</svg>