<?xml version="1.0" encoding="UTF-8"?>
<svg width="27px" height="27px" viewBox="0 0 27 27" version="1.1" xmlns="http://www.w3.org/2000/svg" xmlns:xlink="http://www.w3.org/1999/xlink">
    <title>education</title>
    <g id="页面-1" stroke="none" stroke-width="1" fill="none" fill-rule="evenodd">
        <g id="记账" transform="translate(-525.000000, -544.000000)" fill-rule="nonzero">
            <g id="编组-9" transform="translate(510.000000, 530.000000)">
                <g id="education" transform="translate(2.000000, 0.000000)">
                    <g transform="translate(13.000000, 14.000000)">
                        <rect id="矩形" fill="#000000" opacity="0" x="0" y="0" width="27" height="27"></rect>
                        <path d="M25,16.3600439 L6.78947369,16.3600439 C6.59649124,16.3600439 6.39473685,16.4127333 6.18421053,16.518112 C5.97368422,16.6234907 5.7763158,16.7815587 5.59210528,16.9923161 C5.40789476,17.2030735 5.25877195,17.453348 5.14473685,17.7431394 C5.03070175,18.0329308 4.97368422,18.3622393 4.97368422,18.7310648 C4.97368422,19.0998902 5.02192986,19.442371 5.11842107,19.7585071 C5.21491229,20.0746432 5.34210528,20.3556531 5.50000003,20.6015368 C5.65789478,20.8474204 5.85087724,21.0406147 6.07894741,21.1811196 C6.30701758,21.3216246 6.55263161,21.3918771 6.81578951,21.3918771 L25,21.3918771 C24.7894737,21.1811197 24.6052632,20.9440176 24.4473684,20.6805708 C24.3070175,20.4522503 24.1798246,20.180022 24.0657895,19.8638859 C23.9517544,19.5477497 23.8947368,19.1877058 23.8947368,18.7837541 C23.8947368,18.3271131 23.9517544,17.9495061 24.0657895,17.6509331 C24.1798246,17.3523601 24.3070175,17.1064764 24.4473684,16.9132821 C24.6052632,16.7025247 24.7894737,16.518112 25,16.3600439 L25,16.3600439 Z M25,23.5521405 C25,23.8507135 24.8070175,24 24.4210526,24 L5.1842105,24 C4.58771928,24 4.08771928,23.8770582 3.68421051,23.6311745 C3.28070174,23.3852909 2.95175437,23.0472009 2.6973684,22.6169045 C2.44298244,22.1866081 2.26315788,21.672887 2.15789473,21.075741 C2.05263158,20.4785949 2,19.8375412 2,19.1525796 L2,3.87266741 C2,2.52030736 2.35964912,1.54116356 3.07894736,0.935236012 C3.7982456,0.329308462 4.82456139,0.0263446875 6.15789473,0.0263446875 L7.05263156,0.0263446875 L8.84210525,0.0263446875 L11.2894737,0.0263446875 C12.1842105,0.0263446875 13.1008772,0.0219539062 14.0394737,0.0131723437 C14.9780702,0.00439078125 15.8947368,0 16.7894737,0 L19.2631579,0 L21.1052631,0 L22.0263158,0 C22.5175438,0 22.9473684,0.100987925 23.3157894,0.302963775 C23.6842105,0.504939625 23.991228,0.785949502 24.2368421,1.14599341 C24.4824561,1.50603731 24.6710526,1.93194291 24.8026315,2.4237102 C24.9342105,2.91547749 25,3.44237101 25,4.00439076 L25,14.6739846 C21.6491228,14.6739846 18.6315789,14.665203 15.9473684,14.6476399 L12.5789474,14.6476399 C11.4561403,14.6476399 10.4517544,14.6432491 9.56578946,14.6344676 C8.67982453,14.625686 7.94736839,14.6212952 7.36842104,14.6212952 L6.39473683,14.6212952 C6.02631578,14.6212952 5.66666666,14.7310647 5.31578948,14.9506037 C4.96491229,15.1701427 4.64912282,15.4687157 4.36842107,15.8463227 C4.08771932,16.2239297 3.85964914,16.6630076 3.68421054,17.1635565 C3.50877194,17.6641053 3.42105264,18.1866081 3.42105264,18.7310647 C3.42105264,19.3984632 3.51315789,20 3.69736841,20.535675 C3.88157893,21.0713501 4.122807,21.5236003 4.42105262,21.8924258 C4.71929824,22.2612513 5.04824561,22.546652 5.40789473,22.7486278 C5.76754384,22.9506036 6.12280701,23.0515915 6.47368421,23.0515916 L24.4473684,23.0515916 C24.5877193,23.0515916 24.7149122,23.0911086 24.8289473,23.1701426 C24.9429824,23.2491766 25,23.3765092 25,23.5521404 L25,23.5521405 Z M13.6578947,2.62417652e-08 L13.6578947,10.1953897 L15.6842105,7.35016468 L17.6842105,10.1953897 L17.6842105,2.62417652e-08 L13.6578947,2.62417652e-08 Z" id="形状" fill="#D6D6D6"></path>
                    </g>
                </g>
            </g>
        </g>
    </g>
</svg>