<?xml version="1.0" encoding="UTF-8"?>
<svg width="29px" height="25px" viewBox="0 0 29 25" version="1.1" xmlns="http://www.w3.org/2000/svg" xmlns:xlink="http://www.w3.org/1999/xlink">
    <title>entertainment</title>
    <g id="页面-1" stroke="none" stroke-width="1" fill="none" fill-rule="evenodd">
        <g id="记账" transform="translate(-519.000000, -395.000000)" fill="#D6D6D6" fill-rule="nonzero">
            <g id="编组-7" transform="translate(505.500000, 381.000000)">
                <g id="entertainment" transform="translate(1.000000, 0.000000)">
                    <g transform="translate(13.000000, 14.000000)">
                        <path d="M22.5630848,7.16504156 C17.6698857,6.1164989 17.6698857,9.43688401 13.9999864,9.43688401 C10.330087,9.43688401 10.330087,5.94174178 5.43688791,7.16504156 C0.543688791,8.38834134 -1.90291077,24.4659956 1.76698857,24.4659956 C5.43688791,24.4659956 7.88348747,19.9223107 13.9999864,19.9223107 C20.1164853,19.9223107 22.5630848,24.4659956 26.2329842,24.4659956 C29.9028835,24.4659956 27.4562839,8.38834134 22.5630848,7.16504156 Z M10.5048441,16.2524114 L8.23300169,16.2524114 L8.23300169,18.5242538 L5.78640213,18.5242538 L5.78640213,16.2524114 L3.51455968,16.2524114 L3.51455968,13.9805689 L5.78640213,13.9805689 L5.78640213,11.7087265 L8.05824458,11.7087265 L8.05824458,13.9805689 L10.5048441,13.9805689 L10.5048441,16.2524114 Z M20.9902708,17.9999825 C19.4174568,17.9999825 18.0193999,16.7766827 18.0193999,15.0291116 C18.0193999,13.2815405 19.4174568,12.2329978 20.9902708,12.2329978 C22.5630848,12.2329978 23.9611417,13.4562976 23.9611417,15.2038687 C23.9611417,16.9514398 22.5630848,17.9999825 20.9902708,17.9999825 Z" id="形状"></path>
                        <path d="M13.9999864,7.6893129 C14.5242577,7.6893129 15.048529,7.51455579 15.5728004,7.33979868 C15.3980433,6.99028445 15.2232861,6.46601312 15.2232861,5.76698467 L15.2232861,4.54368489 C15.2232861,3.32038512 16.2718288,2.27184245 17.4951286,2.27184245 L22.2135706,2.27184245 L22.2135706,0 L16.9708573,0 C14.6990148,0 12.7766866,1.92232822 12.7766866,4.19417067 L12.7766866,5.76698467 C12.7766866,6.46601312 12.6019295,6.99028445 12.4271724,7.33979868 C12.9514437,7.6893129 13.475715,7.6893129 13.9999864,7.6893129 Z" id="路径"></path>
                    </g>
                </g>
            </g>
        </g>
    </g>
</svg>