<?xml version="1.0" standalone="no"?><!DOCTYPE svg PUBLIC "-//W3C//DTD SVG 1.1//EN" "http://www.w3.org/Graphics/SVG/1.1/DTD/svg11.dtd"><svg class="icon" width="200px" height="200.00px" viewBox="0 0 1024 1024" version="1.1" xmlns="http://www.w3.org/2000/svg"><path d="M512 512m-512 0a512 512 0 1 0 1024 0 512 512 0 1 0-1024 0Z" fill="#FFF2E9" /><path d="M521.660377 354.729057l-193.207547 168.051924V695.54717c0 19.320755 19.320755 38.641509 38.64151 38.641509h309.132075c19.320755 0 38.641509-19.320755 38.64151-38.641509v-172.766189L521.660377 354.729057zM579.622642 676.226415h-115.924529v-96.603773a38.641509 38.641509 0 0 1 38.64151-38.64151h38.641509a38.641509 38.641509 0 0 1 38.64151 38.64151v96.603773z m211.272452-167.858717c-2.898113 7.998792-10.394566 13.292679-18.837736 13.292679h-29.019773L521.660377 329.129057 300.28317 521.660377H271.263396c-8.44317 0-15.939623-5.293887-18.837736-13.292679a20.537962 20.537962 0 0 1 5.776906-22.566641L493.645283 280.865811C501.566792 273.968302 511.613585 270.490566 521.660377 270.490566c10.046792 0 20.093585 3.477736 28.015095 10.375245l68.588679 59.701132V309.132075a19.320755 19.320755 0 0 1 19.320755-19.320754h19.320754a19.320755 19.320755 0 0 1 19.320755 19.320754v81.881359l108.891774 94.787623c6.414491 5.545057 8.69434 14.548528 5.776905 22.566641z" fill="#FF9400" /></svg>