<?xml version="1.0" encoding="UTF-8"?>
<svg width="30px" height="26px" viewBox="0 0 30 26" version="1.1" xmlns="http://www.w3.org/2000/svg" xmlns:xlink="http://www.w3.org/1999/xlink">
    <title>酒店</title>
    <g id="页面-1" stroke="none" stroke-width="1" fill="none" fill-rule="evenodd">
        <g id="记账备份" transform="translate(-199.000000, -605.000000)" fill-rule="nonzero">
            <g id="编组-13备份" transform="translate(31.000000, 591.000000)">
                <g id="编组-5" transform="translate(157.500000, 0.000000)">
                    <g id="编组-19" transform="translate(1.000000, 0.000000)">
                        <g id="酒店" transform="translate(9.500000, 14.000000)">
                            <rect id="矩形" fill="#000000" opacity="0" x="0" y="0" width="26" height="26"></rect>
                            <path d="M28.375,26 L4,26 L4,24.375 L5.625,24.375 L5.625,12.1875 C5.625,10.80625 6.68125,9.75 8.0625,9.75 L17.8125,9.75 C19.19375,9.75 20.25,10.80625 20.25,12.1875 L20.25,24.375 L21.0625,24.375 L21.0625,11.375 C21.0625,9.99375 20.00625,8.9375 18.625,8.9375 L13.75,8.9375 L13.75,2.4375 C13.75,1.05625 14.80625,0 16.1875,0 L25.9375,0 C27.31875,0 28.375,1.05625 28.375,2.4375 L28.375,24.375 L30,24.375 L30,26 L28.375,26 Z M12.125,13 L8.875,13 L8.875,14.625 L12.125,14.625 L12.125,13 Z M12.125,16.25 L8.875,16.25 L8.875,17.875 L12.125,17.875 L12.125,16.25 Z M12.125,19.5 L8.875,19.5 L8.875,21.125 L12.125,21.125 L12.125,19.5 Z M17,13 L13.75,13 L13.75,14.625 L17,14.625 L17,13 Z M17,16.25 L13.75,16.25 L13.75,17.875 L17,17.875 L17,16.25 Z M17,19.5 L13.75,19.5 L13.75,21.125 L17,21.125 L17,19.5 Z M20.25,3.25 L17,3.25 L17,4.875 L20.25,4.875 L20.25,3.25 Z M20.25,6.5 L17,6.5 L17,8.125 L20.25,8.125 L20.25,6.5 Z M25.125,3.25 L21.875,3.25 L21.875,4.875 L25.125,4.875 L25.125,3.25 Z M25.125,6.5 L21.875,6.5 L21.875,8.125 L25.125,8.125 L25.125,6.5 Z" id="形状" fill="#D6D6D6"></path>
                        </g>
                    </g>
                </g>
            </g>
        </g>
    </g>
</svg>