<?xml version="1.0" encoding="UTF-8"?>
<svg width="35px" height="35px" viewBox="0 0 35 35" version="1.1" xmlns="http://www.w3.org/2000/svg" xmlns:xlink="http://www.w3.org/1999/xlink">
    <title>保险-实</title>
    <g id="页面-1" stroke="none" stroke-width="1" fill="none" fill-rule="evenodd">
        <g id="记账备份" transform="translate(-42.000000, -602.000000)" fill-rule="nonzero">
            <g id="编组-13备份" transform="translate(31.000000, 591.000000)">
                <g id="eat" transform="translate(1.000000, 0.000000)">
                    <g id="保险-实" transform="translate(10.000000, 11.000000)">
                        <rect id="矩形" fill="#000000" opacity="0" x="0" y="0" width="35" height="35"></rect>
                        <path d="M16.5840555,12.7708751 L20.2755633,12.7708751 L20.2755633,14.3861055 L16.5840555,14.3861055 L16.5840555,12.7708751 Z M26.220104,7.21309285 C25.9948007,7.21309285 25.7868284,7.23046092 25.5788562,7.23046092 C20.0155979,7.23046092 17.5719237,4.64261857 17.5545927,4.6252505 L17,4 L16.4454073,4.6252505 C16.4280763,4.65998664 13.8457539,7.43887776 7.77989601,7.23046092 L7,7.19572478 L7,18.9191717 C7,20.6733467 7.32928943,22.8964596 9.25303293,25.1195725 L9.35701906,25.241149 C10.7954939,26.8563794 13.0831889,28.4542418 16.7227036,29.8957916 L17,30 L17.2772964,29.8957916 C25.9948007,26.4742819 27,21.99332 27,18.9191717 L27,7.17835671 L26.220104,7.21309285 Z M14.0363951,21.7849031 L12.8058925,21.7849031 L12.8058925,16.4355377 C12.5459272,16.9044756 12.2512998,17.3734135 11.9220104,17.8249833 C11.8873484,17.5818303 11.8353553,17.251837 11.7487002,16.8002672 C11.6967071,16.50501 11.644714,16.261857 11.610052,16.0881764 C12.4246101,14.6813627 13.0831889,13.0487642 13.5511265,11.1730127 L14.8336222,11.5377422 C14.6256499,12.3193053 14.3656846,13.0835003 14.0363951,13.8650635 L14.0363951,21.7849031 L14.0363951,21.7849031 Z M22.0259965,20.5344021 C21.8873484,20.7949232 21.7660312,21.00334 21.6793761,21.1075484 C20.4835355,20.3954576 19.5996534,19.509686 19.0450607,18.4676019 L19.0450607,21.7675351 L17.7279029,21.7675351 L17.7279029,18.502338 C17.0519931,19.6659987 16.1334489,20.5691383 14.9549393,21.2291249 C14.660312,20.7775551 14.4176776,20.4475618 14.2097054,20.2044088 C15.3535529,19.5791583 16.254766,18.7975952 16.9306759,17.8423514 L14.4696707,17.8423514 L14.4696707,16.6960588 L17.7279029,16.6960588 L17.7279029,15.5323981 L15.3015598,15.5323981 L15.3015598,11.6072144 L21.5407279,11.6072144 L21.5407279,15.5323981 L19.0277296,15.5323981 L19.0277296,16.6960588 L22.2859619,16.6960588 L22.2859619,17.8597194 L19.7729636,17.8597194 C20.3622184,18.7281229 21.2287695,19.4402138 22.372617,19.995992 C22.3206239,20.1175685 22.2166378,20.3086172 22.0259965,20.5344021 L22.0259965,20.5344021 Z" id="形状" fill="#D6D6D6"></path>
                    </g>
                </g>
            </g>
        </g>
    </g>
</svg>