<?xml version="1.0" encoding="UTF-8"?>
<svg width="25px" height="26px" viewBox="0 0 25 26" version="1.1" xmlns="http://www.w3.org/2000/svg" xmlns:xlink="http://www.w3.org/1999/xlink">
    <title>旅游</title>
    <g id="页面-1" stroke="none" stroke-width="1" fill="none" fill-rule="evenodd">
        <g id="记账备份" transform="translate(-521.000000, -605.000000)" fill="#D6D6D6" fill-rule="nonzero">
            <g id="编组-13备份" transform="translate(31.000000, 591.000000)">
                <g id="编组-7" transform="translate(472.500000, 0.000000)">
                    <g id="entertainment" transform="translate(3.000000, 0.000000)">
                        <g id="旅游" transform="translate(14.500000, 14.000000)">
                            <path d="M24.8901112,10.6393225 C24.1237626,9.75102208 23.1924274,8.97225802 22.1234707,8.34502679 C20.8934587,7.61412455 19.4921393,7.08571469 17.9710562,6.81431144 C17.647147,6.75489676 17.317251,6.71018339 16.9816507,6.67626114 C14.9595953,6.47150899 13.0132369,6.74354701 11.2902951,7.388755 C12.0046117,6.72447847 12.7914904,5.94464798 13.5771358,5.07427357 C15.408407,3.0456682 16.583946,1.24634259 17.1058852,0.383128425 C17.2577417,0.13203788 16.9338583,-0.0713685524 16.5409071,0.0239488417 C15.4000048,0.300963488 14.3288641,0.679947956 13.362327,1.15300566 C12.2673157,1.68316749 11.2919139,2.33596735 10.4824493,3.10216292 C10.3093175,3.26463926 10.1450247,3.43351409 9.98705284,3.6079495 C8.99132643,4.70712123 8.40399377,5.92491924 8.21308113,7.16498506 C7.59555705,6.37725802 6.7180269,5.84988916 5.61677175,5.65176402 C5.46247425,5.62396099 5.30671213,5.60199788 5.1480208,5.58782976 C4.4022024,5.51749697 3.59389412,5.58516371 2.74606719,5.77798217 C1.98452353,5.94805037 1.17616387,6.22460798 0.339899633,6.60090098 C0.0472354046,6.73255276 -0.103850239,7.01340141 0.0807414895,7.09229092 C0.717588098,7.3647352 2.11322901,7.89304349 4.02037708,8.2353889 C4.68954778,8.35551322 5.33322921,8.43684026 5.9222577,8.49127834 C4.93133621,8.84670006 4.00747827,9.4928221 3.24056439,10.4518615 C3.07431879,10.6598129 2.91955875,10.8752292 2.77947049,11.1009797 C2.11495056,12.1572408 1.73137799,13.3709001 1.61747275,14.6400892 C1.5146934,15.7113818 1.61215391,16.7955221 1.88248933,17.8337811 C1.97116222,18.1744507 2.40959327,18.3366223 2.65289772,18.1266397 C3.47269158,17.4192494 5.06939459,15.9420834 6.60476403,13.9431092 C7.48707343,12.7943491 8.20115872,11.6653938 8.73563707,10.736595 C9.27856904,11.1980237 9.78727546,11.6968785 10.2621161,12.2294271 C12.4678896,14.6817049 13.8398913,17.8388593 14.0440111,21.2971497 C14.0161322,21.2970227 13.9881762,21.2968957 13.9601688,21.2968957 C9.98322431,21.2968957 6.44432544,22.987853 4.18626295,26 L23.7391879,26 C22.6702569,24.4790347 21.3269564,23.5229661 19.7766069,22.721274 C19.5721157,22.6140455 19.36468,22.5123928 19.1545348,22.416431 C19.0298377,19.1940474 17.9069989,16.1645838 15.9304491,13.6922726 C15.026556,12.5603466 14.0095543,11.5440254 12.8708618,10.6781451 C13.9672606,10.8660124 15.1934183,11.0423267 16.5035468,11.1750449 C20.0419832,11.5333104 23.0489988,11.4570361 24.5002177,11.382133 C24.9254673,11.360373 25.1479075,10.9382494 24.8900855,10.6393479" id="路径"></path>
                        </g>
                    </g>
                </g>
            </g>
        </g>
    </g>
</svg>