<?xml version="1.0" encoding="UTF-8"?>
<svg width="28px" height="28px" viewBox="0 0 28 28" version="1.1" xmlns="http://www.w3.org/2000/svg" xmlns:xlink="http://www.w3.org/1999/xlink">
    <title>medical</title>
    <g id="页面-1" stroke="none" stroke-width="1" fill="none" fill-rule="evenodd">
        <g id="记账" transform="translate(-44.000000, -544.000000)" fill-rule="nonzero">
            <g id="编组-8" transform="translate(29.000000, 530.000000)">
                <g id="medical" transform="translate(2.000000, 0.000000)">
                    <g transform="translate(13.000000, 14.000000)">
                        <rect id="矩形" fill="#000000" opacity="0" x="0" y="0" width="28" height="28"></rect>
                        <path d="M23.3497512,4.11638694 L21.7641899,4.11638694 L21.7641899,1.75187652 C21.7641899,0.788395043 20.7275027,0 19.4600658,0 L8.53959687,0 C7.27215992,0 6.23513538,0.788395043 6.23513538,1.75187652 L6.23513538,4.11638694 L4.6495741,4.11638694 C2.3609682,4.11638694 0.488319125,5.98903602 0.488319125,8.27764189 L0.488319125,23.8384077 C0.488319125,26.1273509 2.3609682,28 4.6495741,28 L23.3497512,28 C25.6386944,28 27.5113435,26.1273509 27.5113435,23.8384077 L27.5113435,8.27764189 C27.5113435,5.98903599 25.6386944,4.11638694 23.3497512,4.11638694 Z M19.7218521,17.5207894 C19.7196287,18.2859945 19.0998598,18.9057635 18.3346546,18.9079868 L16.3756431,18.9079868 L16.3756431,20.8680105 C16.3734197,21.6332156 15.7536508,22.2529845 14.9884456,22.2552079 L13.0122291,22.2552079 C12.2470239,22.2529845 11.627255,21.6332156 11.6250316,20.8680105 L11.6250316,18.9079868 L9.66500801,18.9079868 C8.90032989,18.9050233 8.28137932,18.28547 8.27915998,17.5207894 L8.27915998,15.5442355 C8.28138336,14.7790303 8.90115227,14.1592614 9.66635742,14.157038 L11.626381,14.157038 L11.626381,12.1980265 C11.6286044,11.4328213 12.2483733,10.8130524 13.0135785,10.810829 L14.988783,10.810829 C15.7538564,10.8132376 16.3734206,11.4329525 16.3756431,12.1980265 L16.3756431,14.1583874 L18.3356667,14.1583874 C19.0999521,14.1611616 19.7188919,14.7799507 19.7218521,15.5442355 L19.7218521,17.5207894 Z M19.7491777,4.11638694 L8.251497,4.11638694 L8.251497,2.73559923 C8.251497,2.09462766 8.94307159,1.56768153 9.78780466,1.56768153 L18.211858,1.56768153 C19.0569284,1.56768153 19.7481656,2.09327822 19.7481656,2.73559923 L19.7491777,4.11638694 Z" id="形状" fill="#D6D6D6"></path>
                    </g>
                </g>
            </g>
        </g>
    </g>
</svg>