<?xml version="1.0" encoding="UTF-8"?>
<svg width="173px" height="173px" viewBox="0 0 173 173" version="1.1" xmlns="http://www.w3.org/2000/svg" xmlns:xlink="http://www.w3.org/1999/xlink">
    <title>web__暂无记录</title>
    <g id="页面-1" stroke="none" stroke-width="1" fill="none" fill-rule="evenodd">
        <g id="账本备份" transform="translate(-289.000000, -717.000000)" fill-rule="nonzero">
            <g id="web__暂无记录" transform="translate(289.000000, 717.000000)">
                <rect id="矩形" fill="#000000" opacity="0" x="0" y="0" width="173" height="173"></rect>
                <path d="M105.083932,163 L65.9437744,163 C65.3321492,162.999813 64.8359535,162.498731 64.8359535,161.880436 C64.8359535,161.262249 65.3322576,160.761361 65.9437744,160.761548 L105.083597,160.761548 C105.695114,160.761361 106.191418,161.262249 106.191418,161.880436 C106.191418,162.498809 105.695299,163 105.083597,163 L105.083932,163 Z M101.213596,26.1380696 C99.9551501,26.1380696 98.8168356,25.2652835 98.5197748,23.9731266 L96.3218929,14.433963 C95.9750705,12.9282249 96.9012705,11.4241807 98.3899258,11.0735758 C99.8794189,10.7229709 101.367404,11.6591029 101.714226,13.1641634 L103.911941,22.7041739 C104.258763,24.2099119 103.333233,25.7139562 101.843908,26.0645611 C101.637228,26.1130722 101.425773,26.1377326 101.213596,26.1380696 L101.213596,26.1380696 Z M132.027169,50.7396945 C131.844878,50.7396945 131.660576,50.7220795 131.475604,50.6838009 L121.978034,48.7449727 C120.479661,48.439252 119.510066,46.9629851 119.812153,45.4477622 C120.115413,43.9325392 121.575586,42.9528779 123.074294,43.2585986 L132.572199,45.1972575 C134.070237,45.5029782 135.040167,46.9799226 134.737745,48.4946374 C134.47168,49.8232098 133.317616,50.7398638 132.027169,50.7398638 L132.027169,50.7396945 Z M116.88762,31.4997852 C116.090264,31.4997852 115.299107,31.1539217 114.751563,30.4842155 C113.778282,29.2923282 113.944321,27.5279555 115.12268,26.5438905 L123.266973,19.7419858 C124.445834,18.757074 126.190333,18.9252627 127.164619,20.1169807 C128.138905,21.3081905 127.971861,23.0722244 126.79367,24.0573056 L118.649377,30.8590409 C118.153977,31.2737216 117.530807,31.5003658 116.88762,31.4997852 L116.88762,31.4997852 Z M143.6298,155.126972 L78.3362225,155.126972 L124.103703,138.357217 C126.938933,137.318614 129.204337,135.225824 130.483223,132.464345 C131.761439,129.702696 131.898996,126.603145 130.871597,123.736654 L127.904339,115.462716 C127.540092,114.445623 126.42825,113.919716 125.422465,114.288783 C124.416178,114.657003 123.896112,115.780971 124.261029,116.797725 L127.227282,125.071493 C127.901994,126.954258 127.811853,128.98946 126.972443,130.803798 C126.133032,132.61712 124.64488,133.991763 122.782427,134.673833 L71.2778015,153.54637 C69.4143435,154.228272 67.4010984,154.136979 65.6071724,153.288413 C63.8132464,152.43917 62.4534348,150.935804 61.7787229,149.052699 L33.3205258,69.6820141 C31.9273723,65.7965664 33.9210143,61.4885297 37.7655483,60.080182 L89.2705088,41.2071365 C91.1329616,40.5250659 93.1462066,40.6170362 94.9408028,41.4656017 C96.7347288,42.3141672 98.0945404,43.8185502 98.7687496,45.6982668 L110.393162,78.2333865 C110.756739,79.2513263 111.867073,79.7780806 112.874534,79.4105382 C113.880653,79.0429959 114.401557,77.9203827 114.03798,76.9031203 L102.412562,44.36546 C101.384996,41.4993072 99.3149529,39.2091966 96.5832662,37.9163621 C93.8512445,36.6242052 90.7851339,36.4851488 87.9499032,37.5237524 L36.4442725,56.3961204 C30.5906821,58.5412466 27.5550651,65.1000991 29.676378,71.0171921 L58.1347427,150.387539 C59.5190162,154.248088 62.7608836,156.893885 66.4730554,157.673346 C66.6943045,157.81924 66.9528067,157.896812 67.2169642,157.896581 L68.1875641,157.896581 C68.3785678,157.906066 68.5694038,157.913519 68.7617478,157.913519 C68.9534216,157.913519 69.1450954,157.906913 69.3374394,157.896581 L143.630136,157.896581 C144.387113,157.896581 145,157.276332 145,156.511607 C145,155.746882 144.386778,155.126803 143.629968,155.126803 L143.6298,155.126972 Z M130.184989,71.3100404 L127.175007,69.6581323 C125.972857,68.9997742 124.251647,69.8571472 123.329133,71.5749419 L98.276664,118.254006 C98.1650777,118.461828 98.1074415,118.690992 98.1149811,118.901524 L98.2788421,124.066087 C98.2009328,124.071168 98.1228559,124.087258 98.0464544,124.116899 L90.2642302,127.0486 C89.8344114,127.210476 89.6157849,127.693939 89.7759144,128.128446 C89.9360439,128.562952 90.4142916,128.783963 90.8441105,128.622087 L98.3344677,125.799972 L98.3364783,125.860269 C98.3549085,126.429706 98.8180085,126.683767 99.2997061,126.388378 L105.190995,122.782568 C105.369432,122.673491 105.528434,122.50039 105.640021,122.292568 L130.692322,75.6129958 C131.614166,73.8962174 131.387474,71.969076 130.185157,71.3100404 L130.184989,71.3100404 Z M74.1807212,133.109661 L68.4693782,135.261223 C68.2629565,135.338902 68.0955408,135.496337 68.003999,135.698858 C67.9124571,135.901379 67.9042963,136.132378 67.9813138,136.340985 C68.1414864,136.775404 68.6196555,136.996358 69.049426,136.834542 L74.7606014,134.68281 C74.9670277,134.605123 75.1344624,134.447707 75.226059,134.245204 C75.3176557,134.0427 75.3259084,133.811704 75.249001,133.603048 C75.1723113,133.394179 75.0165376,133.224756 74.8160728,133.132185 C74.615608,133.039614 74.3869393,133.03151 74.1805536,133.109661 L74.1807212,133.109661 Z M86.1134203,128.612433 L78.3311961,131.544981 C78.1247721,131.622664 77.9573469,131.780089 77.8657777,131.982601 C77.7742084,132.185113 77.7660016,132.416111 77.8429641,132.624742 C78.0031367,133.059161 78.4813058,133.280115 78.9110763,133.118299 L86.6933005,130.18609 C86.8998621,130.108485 87.0674083,129.951013 87.1589962,129.748396 C87.2505841,129.545779 87.2586922,129.314657 87.1815325,129.10599 C87.1047632,128.897216 86.9490176,128.727875 86.7486259,128.635291 C86.5482342,128.542708 86.3196478,128.534485 86.1132527,128.612433 L86.1134203,128.612433 Z M63.2075639,115.635478 C62.860389,115.635636 62.5497015,115.417606 62.4284703,115.088738 C62.2686826,114.654339 62.487073,114.171186 62.9165348,114.008976 L67.8001954,112.168893 C68.2280962,112.014016 68.6996677,112.235603 68.8583943,112.666132 C69.0171208,113.096661 68.8040395,113.576201 68.3802432,113.742212 L63.4967501,115.582295 C63.4043045,115.617464 63.3063393,115.635478 63.2075639,115.635478 L63.2075639,115.635478 Z M72.2410293,112.231392 C71.9042598,112.231392 71.5874284,112.022046 71.4627734,111.683974 C71.3857967,111.475342 71.3939755,111.244339 71.4855096,111.041803 C71.5770438,110.839267 71.7444323,110.681796 71.9508379,110.604044 L79.733062,107.671496 C79.9394236,107.593733 80.1678917,107.602028 80.368203,107.694556 C80.5685144,107.787085 80.7242595,107.956268 80.8011743,108.164884 C80.8783425,108.373529 80.870258,108.604633 80.7787032,108.807246 C80.6871483,109.009859 80.5196408,109.167345 80.3131098,109.244984 L72.5308856,112.177531 C72.4382577,112.212962 72.3400662,112.231208 72.2410293,112.231392 L72.2410293,112.231392 Z M84.1735608,107.735181 C83.826842,107.734794 83.5167505,107.516969 83.3954724,107.18861 C83.3183564,106.979985 83.3264678,106.748924 83.418019,106.546351 C83.5095702,106.343777 83.6770464,106.186319 83.8835369,106.108679 L91.6657611,103.175284 C91.872144,103.09753 92.1006303,103.105849 92.3009453,103.198411 C92.5012603,103.290973 92.6569916,103.460195 92.7338734,103.668841 C92.8109894,103.877466 92.802878,104.108527 92.7113268,104.3111 C92.6197756,104.513674 92.4522994,104.671132 92.2458089,104.748772 L84.4634172,107.68132 C84.3707569,107.716633 84.2725866,107.734875 84.1735608,107.735181 L84.1735608,107.735181 Z M96.1062599,103.237953 C95.7042541,103.238104 95.3598533,102.947174 95.2885785,102.547222 C95.2173038,102.14727 95.4396194,101.753131 95.8164035,101.611451 L103.59846,98.6790729 C103.804839,98.6012098 104.033369,98.609455 104.233732,98.7019932 C104.434095,98.7945314 104.589864,98.963775 104.66674,99.1724603 C104.743757,99.381067 104.735597,99.6120657 104.644055,99.8145868 C104.552513,100.017108 104.385097,100.174543 104.178675,100.252222 L96.3964513,103.184939 C96.3036801,103.219962 96.2054567,103.237953 96.1064274,103.237953 L96.1062599,103.237953 Z" id="形状" fill="#999999"></path>
            </g>
        </g>
    </g>
</svg>