<?xml version="1.0" encoding="UTF-8"?>
<svg width="44px" height="44px" viewBox="0 0 44 44" version="1.1" xmlns="http://www.w3.org/2000/svg" xmlns:xlink="http://www.w3.org/1999/xlink">
    <title>Onaccount</title>
    <defs>
        <linearGradient x1="50%" y1="0%" x2="50%" y2="100%" id="linearGradient-1">
            <stop stop-color="#FE9C3C" offset="0%"></stop>
            <stop stop-color="#FF8440" offset="100%"></stop>
        </linearGradient>
    </defs>
    <g id="页面-1" stroke="none" stroke-width="1" fill="none" fill-rule="evenodd">
        <g id="记账" transform="translate(-32.000000, -1247.000000)">
            <g id="编组-2" transform="translate(18.000000, 1247.000000)">
                <g id="Onaccount" transform="translate(14.000000, 0.000000)">
                    <rect id="矩形" x="0" y="0" width="44" height="44"></rect>
                    <circle id="椭圆形" fill="url(#linearGradient-1)" cx="22" cy="22" r="18"></circle>
                    <g id="021-加号" transform="translate(13.000000, 13.000000)" fill-rule="nonzero">
                        <rect id="矩形" fill="#000000" opacity="0" x="0" y="0" width="18" height="18"></rect>
                        <path d="M14.7031763,7.99408543 L10.0059146,7.99408543 L10.0059146,3.29682366 C10.0059146,2.73997809 9.55684556,2.29090909 9,2.29090909 C8.44315444,2.29090909 7.99408543,2.73997809 7.99408543,3.29682366 L7.99408543,7.99408543 L3.29682366,7.99408543 C2.73997809,7.99408543 2.29090909,8.44315444 2.29090909,9 C2.29090909,9.55684556 2.73997809,10.0059146 3.29682366,10.0059146 L7.99408543,10.0059146 L7.99408543,14.7031763 C7.99408543,15.2600219 8.44315444,15.7090909 9,15.7090909 C9.55684556,15.7090909 10.0059146,15.2600219 10.0059146,14.7031763 L10.0059146,10.0059146 L14.7031763,10.0059146 C15.2600219,10.0059146 15.7090909,9.55684556 15.7090909,9 C15.7090909,8.44315444 15.2600219,7.99408543 14.7031763,7.99408543 Z" id="路径" fill="#FFFFFF"></path>
                    </g>
                </g>
            </g>
        </g>
    </g>
</svg>