<?xml version="1.0" encoding="UTF-8"?>
<svg width="29px" height="29px" viewBox="0 0 29 29" version="1.1" xmlns="http://www.w3.org/2000/svg" xmlns:xlink="http://www.w3.org/1999/xlink">
    <title>other</title>
    <g id="页面-1" stroke="none" stroke-width="1" fill="none" fill-rule="evenodd">
        <g id="记账" transform="translate(-600.000000, -535.000000)" fill-rule="nonzero">
            <g id="other" transform="translate(600.000000, 535.000000)">
                <rect id="矩形" fill="#000000" opacity="0" x="0" y="0" width="29" height="29"></rect>
                <path d="M16.9039865,18.8488049 L20.1785514,15.6070039 L21.8764739,17.2879377 C22.8467153,18.2484714 24.3020775,18.2484714 25.2723189,17.2879377 C26.2425604,16.3274041 26.2425604,14.8866037 25.2723189,13.92607 L14.9635037,3.72040022 C13.9932622,2.75986659 12.5379001,2.75986659 11.5676586,3.72040022 C10.5974172,4.68093384 10.5974172,6.12173428 11.5676586,7.08226793 L13.2655811,8.76320178 L10.1122965,12.1250695 L3.07804604,12.8454697 C2.10780461,12.9655364 1.62268388,14.1662034 2.35036496,14.8866037 L7.44413251,19.9294052 L3.19932623,24.1317399 C2.7142055,24.6120067 2.7142055,25.3324069 3.19932623,25.8126737 C3.68444696,26.2929406 4.41212804,26.2929406 4.89724874,25.8126737 L9.14205504,21.6103391 L14.2358226,26.6531406 C14.9635037,27.3735409 16.1763055,26.893274 16.2975856,25.9327404 L16.9039865,18.8488049 L16.9039865,18.8488049 Z" id="路径" fill="#D6D6D6"></path>
            </g>
        </g>
    </g>
</svg>