<?xml version="1.0" encoding="UTF-8"?>
<svg width="29px" height="28px" viewBox="0 0 29 28" version="1.1" xmlns="http://www.w3.org/2000/svg" xmlns:xlink="http://www.w3.org/1999/xlink">
    <title>shopping</title>
    <g id="页面-1" stroke="none" stroke-width="1" fill="none" fill-rule="evenodd">
        <g id="记账" transform="translate(-202.000000, -394.000000)" fill-rule="nonzero">
            <g id="编组-5" transform="translate(188.500000, 381.000000)">
                <g id="shopping" transform="translate(1.000000, 0.000000)">
                    <g transform="translate(13.000000, 13.000000)">
                        <rect id="矩形" fill="#000000" opacity="0" x="0" y="0" width="28" height="28"></rect>
                        <path d="M9.464,22.064 C9.81866667,22.064 10.1546667,22.1293333 10.472,22.26 C10.7893333,22.3906667 11.0646667,22.5726667 11.298,22.806 C11.5313333,23.0393333 11.718,23.3146667 11.858,23.632 C11.998,23.9493333 12.068,24.2853333 12.068,24.64 C12.068,24.9946667 11.998,25.3306667 11.858,25.648 C11.718,25.9653333 11.5313333,26.2406667 11.298,26.474 C11.0646667,26.7073333 10.7893333,26.894 10.472,27.034 C10.1546667,27.174 9.81866667,27.244 9.464,27.244 C9.09066667,27.244 8.74533333,27.174 8.428,27.034 C8.11066667,26.894 7.83533333,26.7073333 7.602,26.474 C7.36866667,26.2406667 7.182,25.9653333 7.042,25.648 C6.902,25.3306667 6.832,24.9946667 6.832,24.64 C6.832,24.2853333 6.902,23.9493333 7.042,23.632 C7.182,23.3146667 7.36866667,23.0393333 7.602,22.806 C7.83533333,22.5726667 8.11066667,22.3906667 8.428,22.26 C8.74533333,22.1293333 9.09066667,22.064 9.464,22.064 Z M21.112,22.12 C21.4666667,22.12 21.8073333,22.1853333 22.134,22.316 C22.4606667,22.4466667 22.7406667,22.6286667 22.974,22.862 C23.2073333,23.0953333 23.394,23.3706667 23.534,23.688 C23.674,24.0053333 23.744,24.3413333 23.744,24.696 C23.744,25.0506667 23.674,25.3866667 23.534,25.704 C23.394,26.0213333 23.2073333,26.2966667 22.974,26.53 C22.7406667,26.7633333 22.4606667,26.95 22.134,27.09 C21.8073333,27.23 21.4666667,27.3 21.112,27.3 C20.7573333,27.3 20.4213333,27.23 20.104,27.09 C19.7866667,26.95 19.5113333,26.7633333 19.278,26.53 C19.0446667,26.2966667 18.858,26.0213333 18.718,25.704 C18.578,25.3866667 18.508,25.0506667 18.508,24.696 C18.508,24.3413333 18.578,24.0053333 18.718,23.688 C18.858,23.3706667 19.0446667,23.0953333 19.278,22.862 C19.5113333,22.6286667 19.7866667,22.4466667 20.104,22.316 C20.4213333,22.1853333 20.7573333,22.12 21.112,22.12 Z M25.816,6.216 C26.3386667,6.216 26.7446667,6.286 27.034,6.426 C27.3233333,6.566 27.5286667,6.73866667 27.65,6.944 C27.7713333,7.14933333 27.8273333,7.36866667 27.818,7.602 C27.8086667,7.83533333 27.776,8.036 27.72,8.204 C27.664,8.372 27.5426667,8.71733333 27.356,9.24 C27.1693333,9.76266667 26.9686667,10.3366667 26.754,10.962 C26.5393333,11.5873333 26.3246667,12.208 26.11,12.824 C25.8953333,13.44 25.7226667,13.9253333 25.592,14.28 C25.3493333,15.0266667 25.046,15.5446667 24.682,15.834 C24.318,16.1233333 23.8653333,16.268 23.324,16.268 L22.344,16.268 L20.552,16.268 L18.2,16.268 L15.568,16.268 L8.624,16.268 L9.016,18.788 L23.156,18.788 C24.052,18.788 24.5,19.1706667 24.5,19.936 C24.5,20.3093333 24.4113333,20.6313333 24.234,20.902 C24.0566667,21.1726667 23.7066667,21.308 23.184,21.308 L21.84,21.308 L19.264,21.308 L16.016,21.308 L12.74,21.308 L10.024,21.308 L8.512,21.308 C8.13866667,21.308 7.826,21.224 7.574,21.056 C7.322,20.888 7.112,20.6686667 6.944,20.398 C6.776,20.1273333 6.64066667,19.8333333 6.538,19.516 C6.43533333,19.1986667 6.356,18.9 6.3,18.62 C6.28133333,18.508 6.23,18.2373333 6.146,17.808 C6.062,17.3786667 5.95933333,16.842 5.838,16.198 C5.71666667,15.554 5.58133333,14.8353333 5.432,14.042 C5.28266667,13.2486667 5.13333333,12.4506667 4.984,11.648 C4.62933333,9.76266667 4.228,7.66266667 3.78,5.348 L1.68,5.348 C1.4,5.348 1.16666667,5.278 0.98,5.138 C0.793333333,4.998 0.639333333,4.83 0.518,4.634 C0.396666667,4.438 0.312666667,4.228 0.266,4.004 C0.219333333,3.78 0.196,3.57466667 0.196,3.388 C0.196,3.01466667 0.322,2.70666667 0.574,2.464 C0.826,2.22133333 1.16666667,2.1 1.596,2.1 L2.184,2.1 L2.772,2.1 L3.472,2.1 L4.424,2.1 C4.79733333,2.1 5.096,2.156 5.32,2.268 C5.544,2.38 5.72133333,2.52 5.852,2.688 C5.98266667,2.856 6.076,3.03333333 6.132,3.22 C6.188,3.40666667 6.23466667,3.56533333 6.272,3.696 C6.30933333,3.84533333 6.34666667,4.05533333 6.384,4.326 C6.42133333,4.59666667 6.45866667,4.872 6.496,5.152 C6.552,5.488 6.608,5.84266667 6.664,6.216 L25.816,6.216 L25.816,6.216 Z M23.716,5.32 L13.468,5.32 L17.164,1.624 C17.5933333,1.19466667 18.0646667,0.975333333 18.578,0.966 C19.0913333,0.956666667 19.5626667,1.16666667 19.992,1.596 L23.716,5.32 Z" id="形状" fill="#D6D6D6"></path>
                    </g>
                </g>
            </g>
        </g>
    </g>
</svg>