<?xml version="1.0" encoding="UTF-8"?>
<svg width="29px" height="27px" viewBox="0 0 29 27" version="1.1" xmlns="http://www.w3.org/2000/svg" xmlns:xlink="http://www.w3.org/1999/xlink">
    <title>snacks</title>
    <g id="页面-1" stroke="none" stroke-width="1" fill="none" fill-rule="evenodd">
        <g id="记账" transform="translate(-202.000000, -543.000000)" fill="#D6D6D6" fill-rule="nonzero">
            <g id="编组-10" transform="translate(189.000000, 530.000000)">
                <g id="snacks" transform="translate(0.500000, 0.000000)">
                    <g transform="translate(13.000000, 13.000000)" id="路径">
                        <path d="M26.6371826,5.47390243 C26.2245827,5.26769791 25.9763359,4.81359636 26.0183146,4.31843836 C26.1189999,3.12888249 25.7302834,2.95390758 25.4823864,2.62386585 C25.235189,2.29388773 23.9750962,2.25521643 23.5625917,2.13131562 C23.1496102,2.00754202 22.8729005,0.512654615 22.3865835,0.150588217 C21.8812807,-0.225630096 20.570877,0.0680936861 19.9520726,1.4299531 C19.332823,2.7917171 19.9520726,6.21683024 19.9520726,6.21683024 C19.8794049,6.74293164 19.0027176,6.46447285 19.0027176,6.46447285 C17.1457956,5.96928305 15.6703711,6.21683024 15.6703711,6.21683024 C12.8091084,6.62723576 10.8649851,7.74739955 9.54713978,9.15791611 C7.03945233,11.4868442 6.46790579,14.5663644 6.44926979,15.6641714 C6.41673628,17.5866056 7.09917659,18.9140234 6.81019131,19.2853124 C6.76875323,19.5743295 5.5039855,19.1174929 3.5914099,19.037797 C1.27552064,18.9412777 -0.0399713741,20.1106711 0.000926068887,20.5647091 C0.0419825221,21.0188742 0.950408228,21.3075097 1.36278548,21.5140004 C1.77535354,21.7200777 2.02366399,22.1741157 1.98181248,22.6691783 C1.88112718,23.8588295 2.2698755,24.0336772 2.51758171,24.3637508 C2.76493809,24.6937925 4.02480831,24.732432 4.43756718,24.8565554 C4.85032606,24.980329 5.12719475,26.4750892 5.61338457,26.837251 C6.11868742,27.2135011 7.42905931,26.9197774 8.04811811,25.5579179 C8.66714512,24.1960585 8.04811811,20.7709454 8.04811811,20.7709454 C8.120595,20.244844 8.99740946,20.52343 8.99740946,20.52343 C10.8543633,21.0184926 12.329756,20.7709454 12.329756,20.7709454 C15.1916548,20.3604763 17.1364458,19.23974 18.4543548,17.828651 C20.9607702,15.499882 21.5319987,12.4213476 21.5508891,11.3236679 C21.5834544,9.40104282 20.9010141,8.07384765 21.1897768,7.70243145 C21.2314375,7.41344617 22.496078,7.8702827 24.4086218,7.94997865 C26.7246383,8.04640248 28.0399713,6.87710451 27.9990738,6.42309837 C27.9581764,5.96886962 27.0497825,5.68026597 26.6371826,5.47390243 Z"></path>
                    </g>
                </g>
            </g>
        </g>
    </g>
</svg>