<?xml version="1.0" encoding="UTF-8"?>
<svg width="27px" height="27px" viewBox="0 0 27 27" version="1.1" xmlns="http://www.w3.org/2000/svg" xmlns:xlink="http://www.w3.org/1999/xlink">
    <title>形状</title>
    <g id="页面-1" stroke="none" stroke-width="1" fill="none" fill-rule="evenodd">
        <g id="记账备份" transform="translate(-679.000000, -604.000000)" fill="#D6D6D6" fill-rule="nonzero">
            <g id="编组-13备份" transform="translate(31.000000, 591.000000)">
                <g id="编组-3" transform="translate(633.000000, 0.000000)">
                    <g id="daily" transform="translate(2.000000, 0.000000)">
                        <g id="运动户外类目-fill" transform="translate(13.000000, 13.000000)">
                            <path d="M26.1830995,8.90737302 C23.0083474,8.79490914 19.9179742,11.2691145 18.9300392,14.9593357 C17.9421042,18.6425278 19.3765436,22.3257199 22.1751069,23.8193808 C24.2248083,22.1007922 25.7928476,19.7671666 26.5346778,16.994229 C27.2659606,14.2845524 27.1253293,11.4870133 26.1830995,8.90737302 Z M16.7572853,14.3724148 C17.8120202,10.4467224 20.7934042,7.61403838 24.1861347,6.85842167 C24.6607654,6.75298679 24.8576493,6.19418187 24.5799024,5.79352929 C22.7622426,3.17522955 20.1078265,1.29848852 16.9928428,0.465552895 C13.8637959,-0.374411722 10.6116967,-0.0686505435 7.71820732,1.30903201 C7.29279758,1.51287279 7.22248192,2.09276468 7.57054443,2.41258385 C10.1300344,4.76378188 11.2902428,8.70353223 10.2390237,12.6292246 C9.1878046,16.554917 6.20993643,19.3840865 2.81720586,20.1432177 C2.34609094,20.2486526 2.14569132,20.8074575 2.42343817,21.2045956 C4.18132965,23.7350329 6.80410375,25.6820639 10.006982,26.539601 C11.174222,26.8523912 12.3449777,27 13.4981545,27 C15.5091824,27 17.4604419,26.539601 19.2288808,25.7066654 C19.6753852,25.4957956 19.7808587,24.9159037 19.418733,24.5820265 C16.8662746,22.227314 15.7060662,18.2945927 16.7572853,14.3724148 Z M8.06626983,12.0458182 C9.05420485,8.3591116 7.61624961,4.67240497 4.8106548,3.18225854 C2.70470081,4.94653568 1.18236678,7.29773371 0.458115492,10.0074104 C-0.283714715,12.7803479 -0.0973782173,15.584916 0.820241137,18.0977809 C3.99147737,18.2032157 7.07833482,15.7290103 8.06626983,12.0458182 Z" id="形状"></path>
                        </g>
                    </g>
                </g>
            </g>
        </g>
    </g>
</svg>