<?xml version="1.0" encoding="UTF-8"?>
<svg width="212px" height="212px" viewBox="0 0 212 212" version="1.1" xmlns="http://www.w3.org/2000/svg" xmlns:xlink="http://www.w3.org/1999/xlink">
    <title>tag</title>
    <g id="页面-1" stroke="none" stroke-width="1" fill="none" fill-rule="evenodd">
        <g id="画板" transform="translate(-269.000000, -386.000000)" fill-rule="nonzero">
            <g id="tag" transform="translate(269.000000, 386.000000)">
                <rect id="矩形" fill="#000000" opacity="0" x="0" y="0" width="212" height="212"></rect>
                <path d="M65.2029168,71.8808205 C62.3973537,72.8236421 60.2512301,75.1002819 59.4844239,77.9470825 L39.1510214,153.477991 C38.5426664,155.735331 38.8603045,158.140763 40.0340387,160.164968 C41.207773,162.189174 43.1414265,163.666288 45.4094957,164.271268 L92.7375482,176.892793 C95.0054732,177.498309 97.4221855,177.182153 99.4558835,176.013898 C101.489582,174.845642 102.973622,172.921014 103.58144,170.663531 L123.919268,95.1017841 C124.683358,92.2641504 123.976248,89.2341319 122.033759,87.0222457 L102.691798,65.0127724 C100.335264,62.3318224 96.5886875,61.3269676 93.1978604,62.4664402 L65.2029168,71.8808205 Z M62.3702267,63.536957 L90.3607443,54.1181711 C97.1450098,51.8352835 104.642874,53.8453196 109.357471,59.2108356 L128.699433,81.2203089 C132.585896,85.6450769 134.000209,91.7071613 132.470451,97.3837912 L112.128196,172.936727 C110.913466,177.451525 107.946462,181.30105 103.879977,183.638342 C99.8134918,185.975633 94.9806787,186.609204 90.4448399,185.399658 L43.1256394,172.782537 C38.5886839,171.573527 34.7203131,168.619694 32.3719509,164.571174 C30.0235886,160.522653 29.3877077,155.711263 30.6042646,151.195984 L50.9376671,75.6694809 C52.4704144,69.976903 56.7608035,65.4238327 62.3702267,63.536957 Z M135.803288,69.0877849 C138.476639,69.2640016 140.884425,70.7530333 142.221101,73.061473 L180.068494,138.305728 C182.285959,142.129632 180.971414,147.019647 177.129579,149.226762 L136.148522,172.773727 C132.311112,174.980842 127.398166,173.672432 125.1807,169.848528 L124.915136,169.39477 L116.423173,158.038046 L113.061594,168.744887 L117.514733,174.253947 C122.176339,182.29026 132.500557,185.043683 140.5746,180.403912 L181.560083,156.856948 C189.632475,152.215591 192.396733,141.939917 187.734462,133.904715 L149.891494,68.6604594 C147.077662,63.8043235 142.015965,60.6648232 136.396382,60.2901631 L109.027701,58.3305882 L117.095488,67.6990742 L135.803288,69.0877849 Z M172.442362,144.640721 L135.896235,165.641353 C130.784115,168.579768 126.358037,160.949582 131.470157,158.011167 L168.016284,137.00613 C173.128404,134.072121 177.554482,141.702306 172.442362,144.640721 L172.442362,144.640721 Z M87.1916725,122.745788 C80.3331625,122.746498 73.9953328,119.105013 70.565872,113.193211 C67.1364111,107.281409 67.1364111,99.9975636 70.565872,94.0857617 C73.9953328,88.1739598 80.3331625,84.5324743 87.1916725,84.533184 C97.7924963,84.534281 106.385577,93.0881426 106.385577,103.639486 C106.385577,114.19083 97.7924963,122.744691 87.1916725,122.745788 L87.1916725,122.745788 Z M87.1916725,113.93495 C92.9043648,113.93495 97.5354169,109.325514 97.5354169,103.639486 C97.5354169,97.9534583 92.9043648,93.3440219 87.1916725,93.3440219 C81.4789802,93.3440219 76.8479281,97.9534583 76.8479281,103.639486 C76.8479281,109.325514 81.4789802,113.93495 87.1916725,113.93495 L87.1916725,113.93495 Z M118.44012,58.9997658 C115.294429,30.7196525 110.024334,16.9981106 102.629833,17.8351402 C85.3371458,19.7911463 78.21116,83.1939365 94.0432414,98.3661996 C95.251012,99.4409892 95.7723002,101.086691 95.4022603,102.656609 C95.0322204,104.226527 93.8299899,105.469768 92.2679976,105.897786 C90.7060053,106.325805 89.0338787,105.870199 87.9086972,104.710003 C67.3628429,85.0309963 75.5687916,12.0287978 101.629539,9.08157274 C114.063868,7.67183866 122.580762,24.5342955 127.180223,59.6689433 L118.44012,58.9997658 Z" id="形状" fill="#DDDDDD"></path>
            </g>
        </g>
    </g>
</svg>