<?xml version="1.0" encoding="UTF-8"?>
<svg width="45px" height="44px" viewBox="0 0 45 44" version="1.1" xmlns="http://www.w3.org/2000/svg" xmlns:xlink="http://www.w3.org/1999/xlink">
    <title>tags</title>
    <defs>
        <linearGradient x1="50%" y1="0%" x2="50%" y2="100%" id="linearGradient-1">
            <stop stop-color="#FE9C3C" offset="0%"></stop>
            <stop stop-color="#FF8440" offset="100%"></stop>
        </linearGradient>
    </defs>
    <g id="页面-1" stroke="none" stroke-width="1" fill="none" fill-rule="evenodd">
        <g id="记账" transform="translate(-431.000000, -1247.000000)" fill-rule="nonzero">
            <g id="编组-2" transform="translate(18.000000, 1247.000000)">
                <g id="标签分类" transform="translate(387.333333, 0.000000)">
                    <g id="tags" transform="translate(26.000000, 0.000000)">
                        <rect id="矩形" fill="#000000" opacity="0" x="0" y="0" width="44" height="44"></rect>
                        <path d="M8.90909091,4 L15.4545455,4 C18.1657615,4 20.3636364,6.19787486 20.3636364,8.90909091 L20.3636364,18.7272727 C20.3636364,19.6310114 19.6310114,20.3636364 18.7272727,20.3636364 L8.90909091,20.3636364 C6.19787486,20.3636364 4,18.1657615 4,15.4545455 L4,8.90909091 C4,6.19787486 6.19787486,4 8.90909091,4 Z M8.90909091,23.6363636 L18.7272727,23.6363636 C19.1612633,23.6363636 19.5774788,23.8087657 19.8843566,24.1156434 C20.1912343,24.4225212 20.3636364,24.8387367 20.3636364,25.2727273 L20.3636364,35.0909091 C20.3636364,37.8021251 18.1657615,40 15.4545455,40 L8.90909091,40 C6.19787486,40 4,37.8021251 4,35.0909091 L4,28.5454545 C4,25.8342385 6.19787486,23.6363636 8.90909091,23.6363636 Z M25.2727273,23.6363636 L35.0909091,23.6363636 C37.8021251,23.6363636 40,25.8342385 40,28.5454545 L40,35.0909091 C40,37.8021251 37.8021251,40 35.0909091,40 L28.5454545,40 C25.8342385,40 23.6363636,37.8021251 23.6363636,35.0909091 L23.6363636,25.2727273 C23.6363636,24.8387367 23.8087657,24.4225212 24.1156434,24.1156434 C24.4225212,23.8087657 24.8387367,23.6363636 25.2727273,23.6363636 L25.2727273,23.6363636 Z" id="形状" fill="url(#linearGradient-1)"></path>
                        <path d="M23,12 C23,16.418278 26.581722,20 31,20 C35.418278,20 39,16.418278 39,12 C39,7.581722 35.418278,4 31,4 C26.581722,4 23,7.581722 23,12 Z" id="路径" fill="url(#linearGradient-1)"></path>
                    </g>
                </g>
            </g>
        </g>
    </g>
</svg>