<?xml version="1.0" standalone="no"?><!DOCTYPE svg PUBLIC "-//W3C//DTD SVG 1.1//EN" "http://www.w3.org/Graphics/SVG/1.1/DTD/svg11.dtd"><svg class="icon" width="200px" height="195.61px" viewBox="0 0 1047 1024" version="1.1" xmlns="http://www.w3.org/2000/svg"><path d="M214.877091 93.090909h151.272727c62.836364 0 114.036364 51.2 114.036364 114.036364v228.072727c0 20.945455-16.290909 37.236364-37.236364 37.236364h-228.072727c-62.836364 0-114.036364-51.2-114.036364-114.036364V207.127273c0-62.836364 51.2-114.036364 114.036364-114.036364z m0 456.145455h228.072727c9.309091 0 20.945455 4.654545 27.927273 11.636363 6.981818 6.981818 11.636364 16.290909 11.636364 27.927273v228.072727c0 62.836364-51.2 114.036364-114.036364 114.036364h-153.6c-62.836364 0-114.036364-51.2-114.036364-114.036364v-151.272727c0-65.163636 51.2-116.363636 114.036364-116.363636z m381.672727 0h228.072727c62.836364 0 114.036364 51.2 114.036364 114.036363V814.545455c0 62.836364-51.2 114.036364-114.036364 114.036363h-151.272727c-62.836364 0-114.036364-51.2-114.036363-114.036363v-228.072728c0-9.309091 4.654545-20.945455 11.636363-27.927272 4.654545-4.654545 13.963636-9.309091 25.6-9.309091zM543.022545 279.272727c0 102.4 83.781818 186.181818 186.181819 186.181818s186.181818-83.781818 186.181818-186.181818-83.781818-186.181818-186.181818-186.181818-186.181818 83.781818-186.181819 186.181818z" fill="#DBDBDB" /></svg>