<?xml version="1.0" encoding="UTF-8"?>
<svg width="21px" height="26px" viewBox="0 0 21 26" version="1.1" xmlns="http://www.w3.org/2000/svg" xmlns:xlink="http://www.w3.org/1999/xlink">
    <title>traffic</title>
    <g id="页面-1" stroke="none" stroke-width="1" fill="none" fill-rule="evenodd">
        <g id="记账" transform="translate(-364.000000, -395.000000)" fill="#D6D6D6" fill-rule="nonzero">
            <g id="编组-6" transform="translate(347.000000, 381.000000)">
                <g id="traffic" transform="translate(1.000000, 0.000000)">
                    <g id="traffic" transform="translate(16.000000, 14.000000)">
                        <path d="M20.2702703,18.5945946 L20.2702703,19.8918919 C20.2702703,20.3063063 20.2252252,20.6666667 20.1351351,20.972973 C20.045045,21.2792793 19.8828829,21.5225225 19.6486486,21.7027027 C19.4144144,21.8828829 19.063063,21.972973 18.5945946,21.972973 L18.5945946,23.6486487 C18.5945946,24.1171171 18.4279279,24.518018 18.0945946,24.8513514 C17.7612612,25.1846847 17.3603603,25.3513513 16.8918919,25.3513513 C16.4234234,25.3513513 16.027027,25.1846847 15.7027027,24.8513514 C15.3783784,24.518018 15.2162162,24.1171171 15.2162162,23.6486487 L15.2162162,21.972973 L5.05405403,21.972973 L5.05405403,23.6486487 C5.05405403,24.1171171 4.89189187,24.518018 4.56756754,24.8513514 C4.24324321,25.1846847 3.84684682,25.3513513 3.37837836,25.3513513 C2.90990991,25.3513513 2.50900901,25.1846847 2.17567566,24.8513514 C1.84234231,24.518018 1.67567565,24.1171171 1.67567567,23.6486487 L1.67567567,21.972973 C1.22522521,21.972973 0.882882866,21.8828829 0.648648629,21.7027027 C0.414414392,21.5225225 0.252252228,21.2792793 0.162162137,20.972973 C0.0720720456,20.6666667 0.0225225,20.3108108 0.0135135,19.9054054 C0.0045045,19.5 -2.84217094e-14,19.0630631 -2.84217094e-14,18.5945946 L-2.84217094e-14,3.37837839 C-2.84217094e-14,2.90990992 0.0900900911,2.47297298 0.270270273,2.06756758 C0.450450456,1.66216218 0.693693702,1.30630632 1,1 C1.30630632,0.693693702 1.66216218,0.450450456 2.06756758,0.270270273 C2.47297298,0.0900900911 2.90990992,0 3.37837839,0 L16.8918919,0 C17.3603604,0 17.7972973,0.0900900911 18.2027027,0.270270273 C18.6081081,0.450450456 18.963964,0.693693702 19.2702703,1 C19.5765766,1.30630632 19.8198198,1.66216218 20,2.06756758 C20.1801802,2.47297298 20.2702703,2.90990992 20.2702703,3.37837839 L20.2702703,18.5945946 L20.2702703,18.5945946 Z M6.70270267,1.67567567 C6.46846843,1.67567567 6.27027023,1.75675675 6.10810807,1.91891891 C5.94594591,2.08108108 5.86486482,2.27927928 5.86486482,2.51351352 C5.86486482,2.76576577 5.94594591,2.97297298 6.10810807,3.13513514 C6.27027023,3.29729731 6.46846843,3.37837839 6.70270267,3.37837839 L13.5675675,3.37837839 C13.8018018,3.37837839 14,3.29729731 14.1621621,3.13513514 C14.3243243,2.97297298 14.4054054,2.76576577 14.4054054,2.51351352 C14.4054054,2.27927928 14.3243243,2.08108108 14.1621621,1.91891891 C14,1.75675675 13.8018018,1.67567567 13.5675675,1.67567567 L6.70270267,1.67567567 Z M4.16216216,18.8648649 C4.5045045,18.8648649 4.79729729,18.7432432 5.04054053,18.5 C5.28378377,18.2567568 5.40540539,17.963964 5.40540539,17.6216216 C5.40540539,17.2792793 5.28378377,16.9864865 5.04054053,16.7432433 C4.79729729,16.5 4.5045045,16.3783784 4.16216216,16.3783784 C3.80180179,16.3783784 3.50450449,16.5 3.27027025,16.7432433 C3.03603602,16.9864865 2.9189189,17.2792793 2.9189189,17.6216216 C2.9189189,17.963964 3.03603602,18.2567568 3.27027025,18.5 C3.50450449,18.7432432 3.80180179,18.8648649 4.16216216,18.8648649 L4.16216216,18.8648649 Z M16,18.8108108 C16.3243243,18.8108108 16.5990991,18.6936937 16.8243243,18.4594595 C17.0495495,18.2252252 17.1621621,17.9459459 17.1621621,17.6216216 C17.1621621,17.2972973 17.0495495,17.018018 16.8243243,16.7837838 C16.5990991,16.5495495 16.3243243,16.4324324 16,16.4324324 C15.6576576,16.4324324 15.3738738,16.5495495 15.1486486,16.7837838 C14.9234234,17.018018 14.8108108,17.2972973 14.8108108,17.6216216 C14.8108108,17.9459459 14.9234234,18.2252252 15.1486486,18.4594595 C15.3738738,18.6936937 15.6576576,18.8108108 16,18.8108108 Z M18.5945946,5.05405406 L1.67567564,5.05405406 L1.67567564,11.8108108 L18.5945946,11.8108108 L18.5945946,5.05405406 Z" id="形状"></path>
                    </g>
                </g>
            </g>
        </g>
    </g>
</svg>