<?xml version="1.0" encoding="UTF-8"?>
<svg width="45px" height="44px" viewBox="0 0 45 44" version="1.1" xmlns="http://www.w3.org/2000/svg" xmlns:xlink="http://www.w3.org/1999/xlink">
    <title>Write</title>
    <defs>
        <linearGradient x1="50%" y1="0%" x2="50%" y2="100%" id="linearGradient-1">
            <stop stop-color="#FE9C3C" offset="0%"></stop>
            <stop stop-color="#FF8440" offset="100%"></stop>
        </linearGradient>
    </defs>
    <g id="页面-1" stroke="none" stroke-width="1" fill="none" fill-rule="evenodd">
        <g id="记账" transform="translate(-225.000000, -1247.000000)" fill-rule="nonzero">
            <g id="编组-2" transform="translate(18.000000, 1247.000000)">
                <g id="账本" transform="translate(205.666667, 0.000000)">
                    <g id="Write" transform="translate(2.000000, 0.000000)">
                        <rect id="矩形" fill="#000000" opacity="0" x="0" y="0" width="44" height="44"></rect>
                        <path d="M31.8801914,4.11434375 L14.0058789,4.11434375 C8.3538125,4.11434375 7.22257422,5.42519141 7.21746094,10.7811172 C7.39358984,10.7748438 7.39358984,10.8072422 7.39358984,10.8072422 L7.24466016,10.8072422 C5.76365625,10.8072422 5.35175781,12.0172422 5.35175781,13.5089883 C5.35175781,15.0010352 5.76365625,16.2106055 7.24466016,16.2106055 L7.23473437,16.1657891 L7.23473437,19.9318281 L7.24466016,19.6989805 C5.76365625,19.6989805 5.35175781,20.9085938 5.35175781,22.4002969 C5.35175781,23.8927305 5.76365625,25.102043 7.24466016,25.102043 L7.23473437,24.8276875 L7.23473437,28.9703477 L7.24466016,28.5907617 C5.76365625,28.5907617 5.35175781,29.8000742 5.35175781,31.2916914 C5.35175781,32.784125 5.44886719,34.3266172 6.92991406,34.3266172 C6.92991406,34.3266172 6.92991406,34.3266172 7.20684766,34.3236953 C7.2469375,39.0246055 8.314625,39.8918008 14.0059219,39.8918008 L31.8802344,39.8918008 C36.8544258,39.8918008 38.4929102,38.72 38.4929102,34.02575 L38.4929102,10.7748008 C38.4929102,5.09596484 37.0073516,4.11434375 31.8802344,4.11434375 L31.8801914,4.11434375 Z M29.0776406,24.0744453 C30.0501094,24.0744453 30.5569258,24.5966875 30.6020859,25.5808867 C30.647332,26.5665039 30.1365195,27.1770469 28.9265195,27.1725781 C28.2348086,27.1711172 24.9350664,27.0872852 24.9350664,27.0872852 L24.9350664,30.4767031 C24.9350664,31.4616758 24.0013555,31.6329922 23.0225703,31.6329922 C22.044,31.6329922 21.1689844,31.4616758 21.1689844,30.4767031 L21.1689844,27.0872852 L17.0264102,27.0872852 C16.055918,27.0872852 15.5199688,26.5657734 15.5199688,25.5808437 C15.5199688,24.9261719 15.5071641,25.3594258 15.5111602,25.3108711 C15.5858828,24.3943906 16.1033125,24.0744023 17.0264102,24.0744023 L21.1690273,24.0744023 L21.1690273,21.8147617 L17.0264102,21.8147617 C16.3132578,21.8147617 15.6097734,21.6433594 15.6097734,20.0152305 C15.6097734,19.03 16.2088867,18.4253867 17.1879297,18.4253867 L20.3440703,18.4253867 L18.1903906,16.4323672 L17.1841055,15.4188203 C16.531625,14.7615703 16.5169727,13.7299766 17.0965352,13.0293281 C17.131125,12.9873906 17.1454766,12.9351836 17.1841055,12.8954805 C17.8762891,12.1988711 18.9972578,12.1988711 19.6893984,12.8954805 L19.8214844,13.0293281 L23.0442695,16.2746289 L26.3987969,12.8954805 C27.0909375,12.1988711 28.2115625,12.1988711 28.9033164,12.8954805 C29.5951133,13.5920039 29.5951133,14.7225977 28.9033164,15.4188203 L25.8676602,18.4253867 L29.0239727,18.4253867 C30.0025859,18.4253867 30.6020859,19.03 30.6020859,20.0152305 C30.6020859,21.0005039 30.0562969,21.8147617 29.0776406,21.8147617 L24.9350234,21.8147617 L24.9350234,24.0744023 L29.0776406,24.0744023 L29.0776406,24.0744453 Z" id="形状" fill="url(#linearGradient-1)"></path>
                    </g>
                </g>
            </g>
        </g>
    </g>
</svg>