<?xml version="1.0" standalone="no"?><!DOCTYPE svg PUBLIC "-//W3C//DTD SVG 1.1//EN" "http://www.w3.org/Graphics/SVG/1.1/DTD/svg11.dtd"><svg class="icon" width="200px" height="200.00px" viewBox="0 0 1024 1024" version="1.1" xmlns="http://www.w3.org/2000/svg"><path d="M512 93.090909C281.6 93.090909 93.090909 281.6 93.090909 512s188.509091 418.909091 418.909091 418.909091 418.909091-188.509091 418.909091-418.909091S742.4 93.090909 512 93.090909z m132.654545 442.181818H535.272727v109.381818c0 13.963636-9.309091 23.272727-23.272727 23.272728s-23.272727-9.309091-23.272727-23.272728V535.272727h-109.381818c-13.963636 0-23.272727-9.309091-23.272728-23.272727s9.309091-23.272727 23.272728-23.272727H488.727273v-109.381818c0-13.963636 9.309091-23.272727 23.272727-23.272728s23.272727 9.309091 23.272727 23.272728V488.727273h109.381818c13.963636 0 23.272727 9.309091 23.272728 23.272727s-9.309091 23.272727-23.272728 23.272727z" fill="#DBDBDB" /></svg>